<svg xmlns="http://www.w3.org/2000/svg" width="745.623" height="125.535" viewBox="0 0 745.623 125.535">
  <path d="M35.531-28.471l-8.875-.176c-6.687-.176-8.169-1.776-8.169-3.789,0-2.13,3.221-3.609,10.739-3.609h1.509c5.051,0,7.318,1.1,8.376,2.368H54.981c-.59-5.724-4.743-11.72-23.3-11.72H26.777C8.014-45.4,3.754-39.478,3.754-32.2v.532c0,6.808,4.44,12.667,19.827,13.14l8.7.179c7.28.176,8.642,1.775,8.642,4.084,0,2.189-1.124,4.619-9.707,4.619H29.881c-6.279,0-10.128-2.006-10.92-3.819H3.276C3.718-7.834,7.325,0,27.666,0h4.258C52.758,0,55.836-7.869,55.836-14.675v-.71c0-7.461-3.91-12.611-20.3-13.086Zm44.627-4.437V0H94.244V-32.908h19.235V-44.035H60.921v11.127Zm67.657-12.548h-2.664c-22.02,0-27.4,12.369-27.4,21.721v1.775c0,9.232,5.387,21.958,27.4,21.958h2.664c22.078,0,27.4-12.726,27.4-21.958v-1.775C175.219-33.086,169.835-45.456,147.816-45.456Zm12.667,22.194v.769c0,4.794-2.25,11.365-13.968,11.365-11.542,0-14.027-6.57-14.027-11.365v-.769c0-4.795,2.248-11.186,14.027-11.186,11.717,0,13.968,6.394,13.968,11.186Zm73.4-5.326v-.71c0-8.642-4.319-14.737-19.473-14.737H183.393V0H197.54V-13.612h11.633L217.37,0h16.512L224.8-15.086C231.584-17.449,233.879-22.451,233.879-28.588Zm-36.34-4.854h15.684c4.44,0,5.977,1.893,5.977,4.5v.176c0,2.782-1.538,4.616-5.977,4.616H197.54Zm60.135,17.518V0h14.088V-15.862l21.72-28.173H277.978L265.251-27.523,252.584-44.035H235.242Zm58.963-28.112V0h13.613V-28.116L343.391,0h9.824l13.2-28.114V0h13.85V-44.035H362.036l-13.258,27.4-12.962-27.4Zm87.073,36.4h23.263L430.407,0H445.5L424.841-44.035H406.2L386.19,0h14.147l3.374-7.635ZM415.252-33.8l7.4,16.454H408.031Zm45.553.889V0H474.89V-32.908h19.235V-44.035H441.567v11.127Zm55.881,0V0h14.086V-32.908h19.235V-44.035H497.448v11.127Zm82.182-11.127h-42.2V0h42.555V-10.239H570.694v-6.808h28.357V-27.523H570.694v-6.391h28.174Zm60.009,15.447v-.71c0-8.642-4.319-14.737-19.473-14.737H608.391V0h14.147V-13.612h11.633L642.368,0H658.88l-9.086-15.087C656.582-17.449,658.877-22.451,658.877-28.588Zm-36.34-4.854h15.685c4.44,0,5.977,1.893,5.977,4.5v.176c0,2.782-1.538,4.616-5.977,4.616H622.538Zm75.187,4.971-8.875-.176c-6.687-.176-8.169-1.776-8.169-3.789,0-2.13,3.221-3.609,10.739-3.609h1.509c5.051,0,7.318,1.1,8.376,2.368h15.868c-.59-5.724-4.743-11.72-23.3-11.72H688.97c-18.763,0-23.023,5.919-23.023,13.2v.532c0,6.808,4.44,12.667,19.827,13.14l8.7.179c7.28.176,8.642,1.775,8.642,4.084,0,2.189-1.124,4.619-9.707,4.619h-1.331c-6.279,0-10.128-2.006-10.92-3.819H665.469C665.911-7.834,669.518,0,689.859,0h4.258c20.834,0,23.912-7.873,23.912-14.678v-.71c0-7.461-3.91-12.611-20.3-13.086ZM29.541,77h1.717C53.808,77,56.59,62.735,56.59,53.975V32.313H42.5V53.8c0,4.971-1.364,11.541-11.957,11.541h-.3c-10.6,0-12.134-6.568-12.134-11.541V32.313H4.032V53.975C4.032,62.676,6.1,77,29.541,77ZM79.5,50.129,104.95,77h13.672V32.965h-13.73v26.4l-24.74-26.4H65.709V77H79.5ZM128.772,77h14.147V32.965H128.772Zm79.711-23.738c0-9.352-5.385-21.721-27.4-21.721h-2.664c-22.017,0-27.4,12.371-27.4,21.721v1.775c0,9.232,5.385,21.958,27.4,21.958h2.664a38.656,38.656,0,0,0,13.805-2.217l6.782,5.3,6.815-8.722-4.218-3.3a21.261,21.261,0,0,0,4.218-13.023V53.263ZM183.709,52l-6.817,8.722,6.3,4.924a25.653,25.653,0,0,1-3.415.228c-11.541,0-14.027-6.57-14.027-11.365v-.769c0-4.795,2.248-11.186,14.027-11.186,11.717,0,13.968,6.391,13.968,11.186v.769a12.506,12.506,0,0,1-.849,4.672Zm58.016,25h1.717c22.551,0,25.333-14.264,25.333-23.023V32.313H254.689V53.8c0,4.971-1.364,11.541-11.957,11.541h-.3c-10.6,0-12.134-6.568-12.134-11.541V32.313H216.216V53.975C216.216,62.676,218.287,77,241.725,77ZM320.03,32.965h-42.2V77h42.555V66.761H291.856V59.953h28.357V49.477H291.856V43.086H320.03Zm27.478,0V77h13.613V48.884L374.261,77h9.824l13.2-28.114V77h13.85V32.965H392.906l-13.258,27.4-12.962-27.4Zm87.073,36.4h23.263L461.277,77h15.092L455.711,32.965H437.066L417.06,77h14.147l3.374-7.635ZM446.122,43.2l7.4,16.454H438.9Zm45.553.889V77H505.76V44.092H525V32.965H472.437V44.092Zm55.881,0V77h14.086V44.092h19.235V32.965H528.318V44.092Zm82.182-11.127h-42.2V77h42.555V66.761H601.564V59.953h28.357V49.477H601.564V43.086h28.174Zm60.009,15.447V47.7c0-8.642-4.319-14.737-19.473-14.737H639.261V77h14.147V63.388h11.633L673.238,77H689.75l-9.086-15.087C687.452,59.551,689.747,54.549,689.747,48.412Zm-36.34-4.854h15.685c4.44,0,5.977,1.893,5.977,4.5v.176c0,2.782-1.538,4.616-5.977,4.616H653.408Zm75.187,4.971-8.875-.176c-6.687-.176-8.169-1.776-8.169-3.789,0-2.13,3.221-3.609,10.739-3.609H723.8c5.051,0,7.318,1.1,8.376,2.368h15.868c-.59-5.724-4.743-11.72-23.3-11.72H719.84c-18.763,0-23.023,5.919-23.023,13.2v.532c0,6.808,4.44,12.667,19.827,13.14l8.7.179c7.28.176,8.642,1.775,8.642,4.084,0,2.189-1.124,4.619-9.707,4.619h-1.331c-6.279,0-10.128-2.006-10.92-3.819H696.339c.442,5.63,4.049,13.468,24.39,13.468h4.258c20.834,0,23.912-7.873,23.912-14.678v-.71c0-7.461-3.91-12.611-20.3-13.086Z" transform="translate(-3.276 45.456)" fill="#fff" opacity="0.22"/>
</svg>
